<svg xmlns="http://www.w3.org/2000/svg" width="760" height="251" viewBox="0 0 760 251" font-family="-apple-system,Segoe UI,Helvetica,Arial,sans-serif">
<rect x="0.5" y="0.5" width="759" height="250" rx="12" fill="#161b22" stroke="#30363d"/>
<text x="20" y="32" font-size="11" fill="#8b949e" font-weight="600" text-anchor="start" letter-spacing="1.5">VERSION BREAKDOWN</text>
<text x="20" y="50" font-size="11.5" fill="#8b949e" font-weight="400" text-anchor="start">active installs by release</text>
<text x="740" y="42" font-size="24" fill="#41BDF5" font-weight="700" text-anchor="end">97</text>
<text x="90" y="81.5" font-size="11.5" fill="#e6edf3" font-weight="700" text-anchor="end">2026.7.3</text>
<rect x="98" y="70" width="558.0" height="12" rx="3" fill="#3fb950" fill-opacity="0.95"/>
<text x="740" y="81.5" font-size="10.5" fill="#8b949e" font-weight="400" text-anchor="end">37 · 38%</text>
<text x="90" y="104.5" font-size="11.5" fill="#8b949e" font-weight="400" text-anchor="end">2026.2.2</text>
<rect x="98" y="93" width="392.1" height="12" rx="3" fill="#41BDF5" fill-opacity="0.65"/>
<text x="740" y="104.5" font-size="10.5" fill="#8b949e" font-weight="400" text-anchor="end">26 · 27%</text>
<text x="90" y="127.5" font-size="11.5" fill="#8b949e" font-weight="400" text-anchor="end">2026.2.1</text>
<rect x="98" y="116" width="135.7" height="12" rx="3" fill="#41BDF5" fill-opacity="0.65"/>
<text x="740" y="127.5" font-size="10.5" fill="#8b949e" font-weight="400" text-anchor="end">9 · 9%</text>
<text x="90" y="150.5" font-size="11.5" fill="#8b949e" font-weight="400" text-anchor="end">2026.1.61</text>
<rect x="98" y="139" width="301.6" height="12" rx="3" fill="#41BDF5" fill-opacity="0.65"/>
<text x="740" y="150.5" font-size="10.5" fill="#8b949e" font-weight="400" text-anchor="end">20 · 21%</text>
<text x="90" y="173.5" font-size="11.5" fill="#8b949e" font-weight="400" text-anchor="end">2026.1.57</text>
<rect x="98" y="162" width="45.2" height="12" rx="3" fill="#41BDF5" fill-opacity="0.65"/>
<text x="740" y="173.5" font-size="10.5" fill="#8b949e" font-weight="400" text-anchor="end">3 · 3%</text>
<text x="90" y="196.5" font-size="11.5" fill="#8b949e" font-weight="400" text-anchor="end">2026.1.53</text>
<rect x="98" y="185" width="15.1" height="12" rx="3" fill="#41BDF5" fill-opacity="0.65"/>
<text x="740" y="196.5" font-size="10.5" fill="#8b949e" font-weight="400" text-anchor="end">1 · 1%</text>
<text x="90" y="219.5" font-size="11.5" fill="#8b949e" font-weight="400" text-anchor="end">2026.1.50</text>
<rect x="98" y="208" width="15.1" height="12" rx="3" fill="#41BDF5" fill-opacity="0.65"/>
<text x="740" y="219.5" font-size="10.5" fill="#8b949e" font-weight="400" text-anchor="end">1 · 1%</text>
<text x="20" y="240" font-size="10.5" fill="#8b949e" font-weight="400" text-anchor="start">newest 2026.7.3 · 7 releases in use</text>
<text x="740" y="240" font-size="10.5" fill="#8b949e" font-weight="400" text-anchor="end">updated 2026-07-03 09:38 UTC</text>
</svg>